<svg
	xmlns="http://www.w3.org/2000/svg"
	viewBox="0 0 454.41 102"
	width="214"
	height="48"
>
	<g id="Lottomatica" fill="currentColor">
		<rect x="351.56" y="18.8" width="7.21" height="9.61" />
		<path d="M164.6,35.62l-1.2,5.29H149.47l-8.66,40.61h-7.2L142,40.91H127.84l1-5.29Z" />
		<path d="M0,35.62H12.74v34.6H35.08v11.3H0Z" />
		<path d="M81.7,58.93c0,14.42-8.41,23.79-21.87,23.79S38,73.35,38,58.93v-.48C38,44,46.38,34.66,59.83,34.66S81.7,44,81.7,58.45Zm-7.45,0v-.48c0-11.78-6-18.26-14.42-18.26S45.42,46.67,45.42,58.45v.48c0,11.77,6,18.26,14.41,18.26S74.25,70.7,74.25,58.93" />
		<path d="M97.8,46.67H84.1V35.62h40.13V46.67h-13.7V81.52H97.8Z" />
		<path d="M327.77,41.15V69c0,5.29,1.68,7.21,6,7.21a56.37,56.37,0,0,0,8.41-.72v5.77a58.14,58.14,0,0,1-9.13.72c-8.89,0-12.5-3.85-12.5-13.22V41.15h-7.2V35.62h7.21V26l7.21-3.12V35.62h14.9v5.53Z" />
		<rect x="351.32" y="35.62" width="7.45" height="45.9" />
		<path d="M182.87,34.18c-13.7,0-22.11,9.61-22.11,24.27v.48c0,14.66,8.41,24.27,22.11,24.27S205,73.59,205,58.93v-.48c0-14.66-8.41-24.27-22.1-24.27m14.41,24.51c0,12-6,18.5-14.65,18.5S168,70.46,168,58.69v-.48c0-12,6-18.5,14.66-18.5s14.65,6.73,14.65,18.5Z" />
		<path d="M236.93,53.4,226.12,35.62H212.66v45.9h12.26V55.32L236.69,73.1h.24l11.78-18V81.52h12.73V35.62H248Z" />
		<path d="M297.49,35.62a20.31,20.31,0,0,0-7.93-1.44,17.91,17.91,0,0,0-18,12.25L278,48.36a14.77,14.77,0,0,1,4.81-6.73A11.13,11.13,0,0,1,286.68,40a9.74,9.74,0,0,1,2.64-.24c7.21,0,10.33,3.84,10.33,11.77v1.68l-5.76.24c-19.95.72-26,7.69-26,15.86,0,8.65,7.21,13.7,15.86,13.7a17.19,17.19,0,0,0,15.86-9.37v7.93h7.21V54.12c.48-9.85-2.64-16.1-9.37-18.5m2.4,27.88a13.57,13.57,0,0,1-13.44,13.72c-.32,0-.65,0-1,0-5.52,0-9.85-2.89-9.85-8.17,0-5.77,3.85-10.09,18.74-10.81l5.53-.24Z" />
		<path d="M391.45,70.71c-6.49,0-11.06-5.29-11.06-12.26v-.24a11.27,11.27,0,0,1,10.5-12l.56,0a12.84,12.84,0,0,1,10.09,5.28L411.15,44a22.77,22.77,0,0,0-19.46-9.61,23.66,23.66,0,0,0-24.27,23c0,.25,0,.51,0,.76v.24a24.16,24.16,0,0,0,44,13.46l-9.61-6.73a12.22,12.22,0,0,1-10.33,5.53" />
		<path d="M436.86,34.18a17.91,17.91,0,0,0-18,12.25l6.49,1.93a11.88,11.88,0,0,1,11.53-8.66c7.21,0,10.34,3.85,10.34,11.78v1.68l-5.77.24c-19.95.72-25.95,7.69-25.95,15.86,0,8.65,7.21,13.7,15.86,13.7a17.21,17.21,0,0,0,15.86-9.37v7.93h7.21V54.12c.24-13.21-5.53-19.94-17.55-19.94M447.2,63.49a13.58,13.58,0,0,1-13.44,13.73c-.33,0-.65,0-1,0-5.53,0-9.85-2.88-9.85-8.16,0-5.77,3.84-10.1,18.74-10.82L447.2,58Z" />
	</g>
</svg>
