<svg width="283" height="80" viewBox="0 0 283 80" fill="none" xmlns="http://www.w3.org/2000/svg">
<path d="M125.822 38.2277L120.193 28.7659L129.894 18.947L135.344 29.1825L125.822 38.2277ZM206.25 14.4839H196.847L190.08 31.5033H189.661L188.284 14.4839H178.283L169.659 31.5033H169.24L169.719 14.4839H160.856H160.736H151.453L143.488 23.4101H143.069L138.877 14.4839H130.972H130.733H121.57L113.605 23.4101H113.186L108.994 14.4839H100.849L100.011 18.828L105.52 29.1825L95.9386 38.2872L90.7285 14.4839H78.6314L63.0011 38.7633L65.2768 14.4839H54.1978L45.0351 28.1708H44.6159L41.2623 14.4839H31.0217L22.8172 39.1799L21.9189 43.524H31.1415L35.6329 27.1592H36.0522L39.1663 39.4179H46.7119L54.9763 27.1592H55.3955L52.9401 43.524H61.9231H62.1627H71.3253L83.2427 22.7556H83.6619L86.776 43.524H94.2019H95.3398H103.604L112.168 34.5977H112.587L117.378 43.524H123.965H125.463H133.368L141.931 34.5977H142.351L147.142 43.524H155.286L156.184 39.1799L150.016 28.8254L159.778 18.947L160.796 43.524H172.294L180.858 26.6831H181.277L182.714 43.4645H193.793L205.291 18.828L206.25 14.4839Z" fill="black"/>
<path d="M209.543 14.4839L203.314 43.524H212.537L218.705 14.4839H209.543Z" fill="black"/>
<path d="M244.935 14.484L242.779 24.8384L242.181 30.6703H241.761L233.018 14.484H223.017L216.849 43.5241H226.011L228.167 33.1696L228.766 27.3378H229.185L237.929 43.5241H247.93L254.158 14.484H244.935Z" fill="black"/>
<path d="M32.9975 57.2109C32.9975 54.533 30.4224 53.9379 28.506 53.9379C25.5716 53.9379 23.4157 55.3066 23.0563 56.9728L22.9366 57.5679C22.3976 59.9483 24.4936 61.2575 27.6077 61.2575C31.7399 61.2575 32.9975 59.0556 32.9975 57.2109ZM22.3377 60.9004L21.7388 62.9237H19.0439L21.7987 47.273H24.793L23.5953 54.1164C24.793 52.7478 26.8292 51.6766 29.5241 51.6766C32.5783 51.6766 36.2314 52.9858 36.2314 56.9728C36.2314 59.9483 34.0754 63.3403 28.506 63.3403C25.8111 63.3998 23.5354 62.6261 22.3377 60.9004Z" fill="black"/>
<path d="M50.7236 56.2587C50.7236 54.2354 48.1484 53.5808 46.0524 53.5808C42.7587 53.5808 41.2016 54.89 40.8423 56.4967H50.6637C50.7236 56.4372 50.7236 56.3182 50.7236 56.2587ZM53.4783 58.3415H40.7824C41.022 60.8408 43.5971 61.3169 45.6931 61.3169C48.4479 61.3169 49.7654 60.5433 50.6038 59.3531L52.8196 60.4838C51.6219 62.15 49.4659 63.4592 45.6931 63.4592C42.579 63.4592 37.7881 62.5666 37.7881 58.1034C37.7881 55.128 39.944 51.855 46.1722 51.855C49.8851 51.855 53.7179 53.0452 53.7179 56.8537C53.658 57.3298 53.5981 57.8654 53.4783 58.3415Z" fill="black"/>
<path d="M54.6162 52.1528H57.9099L58.389 49.4749L61.6229 48.3443L60.9641 52.1528H66.1743L65.8149 54.2356H60.6048L59.9461 57.8061C59.5268 60.3055 60.8444 60.7815 62.5811 60.7815C63.2997 60.7815 64.0183 60.722 64.737 60.603L64.3178 62.8643C63.659 63.0429 62.7008 63.2214 61.4432 63.2214C58.3291 63.2214 56.1732 62.0907 56.9517 57.7466L57.6105 54.2356H54.2568L54.6162 52.1528Z" fill="black"/>
<path d="M67.4921 52.1528H70.7859L71.265 49.4749L74.4988 48.3443L73.8401 52.1528H79.0502L78.6909 54.2356H73.4808L72.822 57.8061C72.4028 60.3055 73.7203 60.7815 75.457 60.7815C76.1757 60.7815 76.8943 60.722 77.6129 60.603L77.1937 62.8643C76.535 63.0429 75.5768 63.2214 74.3192 63.2214C71.2051 63.2214 69.0492 62.0907 69.8277 57.7466L70.4865 54.2356H67.1328L67.4921 52.1528Z" fill="black"/>
<path d="M82.2242 47.5111H85.5779L85.0389 50.3675H81.6852L82.2242 47.5111ZM81.5655 52.1527H84.6197L82.7033 62.9833H79.709L81.5655 52.1527Z" fill="black"/>
<path d="M88.2129 52.1524H91.2073L90.7282 54.7707C91.7462 53.164 93.6027 51.7953 96.7767 51.7953C99.0524 51.7953 102.466 52.5094 102.466 57.1511C102.466 57.8652 102.406 58.5793 102.226 59.4124L101.568 62.9829H98.5134L99.1721 59.4124C99.3518 58.5793 99.4117 58.0437 99.4117 57.6271C99.4117 54.8302 97.4953 54.0566 95.4592 54.0566C91.9858 54.0566 90.5485 56.318 90.0694 58.9363L89.3508 62.9829H86.3564L88.2129 52.1524Z" fill="black"/>
<path d="M116.419 55.4255C116.419 53.7592 114.503 53.4617 112.886 53.4617C109.712 53.4617 108.933 54.6518 108.933 55.723C108.933 57.3892 110.85 57.6868 112.467 57.6868C115.641 57.6868 116.419 56.4966 116.419 55.4255ZM106.957 62.983C106.238 63.2805 105.999 63.7566 105.999 64.2327C105.999 65.6609 108.035 65.9584 111.209 65.9584C115.521 65.9584 116.599 65.3038 116.599 64.2327C116.599 63.4591 116 63.221 114.503 63.221L108.873 63.1615C108.095 63.102 107.436 63.0425 106.957 62.983ZM121.869 50.4863L121.51 52.6286C121.15 52.5095 120.731 52.45 120.192 52.45C119.294 52.45 118.755 52.6881 118.395 52.9856C119.174 53.5212 119.593 54.2948 119.593 55.3064C119.593 57.3892 117.737 59.4125 112.407 59.4125C110.91 59.4125 109.472 59.234 108.275 58.8769C107.556 59.0555 107.257 59.4125 107.257 59.8886C107.257 60.4837 107.796 60.7217 109.173 60.7812L114.682 60.8407C117.617 60.9002 119.354 61.4953 119.354 63.7566C119.354 65.8394 117.737 67.6842 110.55 67.6842C105.999 67.6842 103.244 66.9701 103.244 64.8873C103.244 63.8756 103.843 63.102 105.64 62.6855C104.741 62.2689 104.382 61.7333 104.382 60.9002C104.382 59.71 105.161 58.8174 107.257 58.4604C106.358 57.9248 105.759 57.0917 105.759 55.961C105.759 53.8782 107.616 51.855 112.946 51.855C114.443 51.855 115.94 52.0335 117.138 52.45C117.617 51.2004 118.695 50.4268 120.491 50.4268C120.971 50.3077 121.39 50.3672 121.869 50.4863Z" fill="black"/>
<path d="M136.362 55.2468L136.901 55.0683C139.536 54.2352 139.836 52.9855 139.836 52.2714C139.836 50.5457 138.638 50.1886 137.44 50.1886C135.284 50.1886 134.925 51.4383 134.925 52.3904C134.865 53.5211 135.464 54.3542 136.362 55.2468ZM136.123 62.9829C137.62 62.9829 138.937 62.6259 140.015 62.0903L135.104 57.4486C132.769 58.2222 132.11 59.2934 132.11 60.3645C132.11 62.7449 134.925 62.9829 136.123 62.9829ZM147.381 62.3878L146.962 64.6491C146.303 65.0062 145.405 65.0657 144.926 65.0657C143.548 65.0657 142.471 64.4111 141.632 63.697C140.075 64.6491 138.039 65.2442 135.524 65.2442C132.889 65.2442 128.816 64.5896 128.816 60.9001C128.816 58.8173 130.194 57.2106 133.607 56.1394C132.709 55.2468 131.931 54.1162 131.931 52.5094C131.931 50.7242 132.889 48.3438 137.26 48.3438C139.716 48.3438 142.53 49.0579 142.53 51.9739C142.53 53.3425 141.752 55.3063 138.099 56.4965L137.68 56.6155L141.991 60.5431C143.489 58.9958 144.327 57.0321 144.806 55.4848L147.202 55.9014C146.722 57.6272 145.704 60.067 143.728 62.0308C144.387 62.4473 144.926 62.6259 145.704 62.6259C146.303 62.6854 146.902 62.5663 147.381 62.3878Z" fill="black"/>
<path d="M167.443 55.4255C167.443 53.7592 165.526 53.4617 163.909 53.4617C160.735 53.4617 159.957 54.6518 159.957 55.723C159.957 57.3892 161.873 57.6868 163.49 57.6868C166.664 57.6868 167.443 56.4966 167.443 55.4255ZM157.981 62.983C157.262 63.2805 157.022 63.7566 157.022 64.2327C157.022 65.6609 159.058 65.9584 162.232 65.9584C166.544 65.9584 167.622 65.3038 167.622 64.2327C167.622 63.4591 167.023 63.221 165.526 63.221L159.897 63.1615C159.118 63.102 158.46 63.0425 157.981 62.983ZM172.892 50.4863L172.533 52.6286C172.174 52.5095 171.754 52.45 171.215 52.45C170.317 52.45 169.778 52.6881 169.419 52.9856C170.197 53.5212 170.617 54.2948 170.617 55.3064C170.617 57.3892 168.76 59.4125 163.43 59.4125C161.933 59.4125 160.496 59.234 159.298 58.8769C158.579 59.0555 158.28 59.4125 158.28 59.8886C158.28 60.4837 158.819 60.7217 160.196 60.7812L165.706 60.8407C168.64 60.9002 170.377 61.4953 170.377 63.7566C170.377 65.8394 168.76 67.6842 161.574 67.6842C157.022 67.6842 154.268 66.9701 154.268 64.8873C154.268 63.8756 154.866 63.102 156.663 62.6855C155.765 62.2689 155.405 61.7333 155.405 60.9002C155.405 59.71 156.184 58.8174 158.28 58.4604C157.382 57.9248 156.783 57.0917 156.783 55.961C156.783 53.8782 158.639 51.855 163.969 51.855C165.466 51.855 166.963 52.0335 168.161 52.45C168.64 51.2004 169.718 50.4268 171.515 50.4268C171.994 50.3077 172.413 50.3672 172.892 50.4863Z" fill="black"/>
<path d="M184.151 58.3411L184.211 57.865L178.582 58.1031C175.707 58.2221 174.989 58.9362 174.989 59.8883C174.989 61.138 176.306 61.5545 178.163 61.5545C181.995 61.495 183.852 59.8883 184.151 58.3411ZM171.755 60.1263C171.755 59.1742 172.174 58.2816 173.072 57.627C173.971 56.9724 175.468 56.5558 177.624 56.4963L184.451 56.2583L184.511 56.0203C184.75 54.4135 183.313 53.6994 180.618 53.6994C178.223 53.6994 176.606 54.2945 176.186 55.8417H172.953C173.551 53.1639 176.246 51.7952 180.738 51.7952C185.349 51.7952 188.104 53.2234 187.445 56.9129L186.966 59.3527C186.667 61.019 186.547 61.9116 186.547 62.9827H183.433C183.433 62.3877 183.553 61.614 183.672 60.8404C182.295 62.6257 180.019 63.3993 177.205 63.3993C173.911 63.3993 171.755 62.5067 171.755 60.1263Z" fill="black"/>
<path d="M191.517 52.1521H194.511L194.092 54.5919C194.811 53.2232 196.308 51.7355 199.123 51.7355C201.518 51.7355 203.315 52.8662 203.854 54.8894C204.752 53.2232 206.369 51.7355 209.303 51.7355C211.579 51.7355 214.513 52.6281 214.513 56.6152C214.513 57.2103 214.453 57.8649 214.274 58.579L213.495 62.9231H210.501L211.279 58.5195C211.339 58.0434 211.399 57.5673 211.399 57.1508C211.399 54.7704 209.962 54.0563 208.345 54.0563C205.53 54.0563 204.333 56.2581 203.913 58.6385L203.135 62.9231H200.141L200.859 58.8765C200.979 58.2814 201.039 57.7459 201.039 57.2698C201.039 54.7109 199.542 54.0563 197.925 54.0563C195.17 54.0563 193.972 56.1986 193.553 58.579L192.775 62.9231H189.78L191.517 52.1521Z" fill="black"/>
<path d="M229.486 56.2584C229.486 54.2351 226.91 53.5805 224.814 53.5805C221.521 53.5805 219.964 54.8897 219.604 56.4964H229.426C229.486 56.4369 229.486 56.3179 229.486 56.2584ZM232.181 58.3412H219.485C219.724 60.8405 222.299 61.3166 224.395 61.3166C227.15 61.3166 228.468 60.543 229.306 59.3528L231.522 60.4835C230.324 62.1497 228.168 63.4589 224.395 63.4589C221.281 63.4589 216.49 62.5663 216.49 58.1032C216.49 55.1277 218.646 51.8548 224.874 51.8548C228.587 51.8548 232.42 53.0449 232.42 56.8535C232.42 57.3295 232.3 57.8651 232.181 58.3412Z" fill="black"/>
<path d="M232.839 60.0669L234.995 58.9363C236.073 60.9596 238.528 61.3761 241.043 61.3761C243.678 61.3761 244.696 60.9001 244.696 59.8884C244.696 59.1743 244.277 58.9363 243.02 58.8173L238.348 58.4007C235.594 58.1032 234.276 57.151 234.276 55.4253C234.276 53.1044 236.492 51.8548 240.864 51.8548C244.277 51.8548 247.032 52.6284 248.349 54.5326L246.313 55.7823C245.056 54.1161 242.9 53.8185 240.684 53.8185C238.109 53.8185 237.211 54.2351 237.211 55.1872C237.211 55.9013 237.69 56.1394 239.007 56.3179L243.798 56.794C246.433 57.0915 247.631 57.9246 247.631 59.7099C247.631 62.0902 245.535 63.5184 240.624 63.5184C236.971 63.3994 233.917 62.6853 232.839 60.0669Z" fill="black"/>
</svg>
