<?xml version="1.0" encoding="UTF-8" standalone="no"?>
<!-- Created with Inkscape (http://www.inkscape.org/) -->

<svg
   xmlns:dc="http://purl.org/dc/elements/1.1/"
   xmlns:cc="http://creativecommons.org/ns#"
   xmlns:rdf="http://www.w3.org/1999/02/22-rdf-syntax-ns#"
   xmlns:svg="http://www.w3.org/2000/svg"
   xmlns="http://www.w3.org/2000/svg"
   xmlns:sodipodi="http://sodipodi.sourceforge.net/DTD/sodipodi-0.dtd"
   xmlns:inkscape="http://www.inkscape.org/namespaces/inkscape"
   viewBox="0 0 400 398.52249"
   width="316"
   height="316"
   id="svg4305"
   version="1.1"
   inkscape:version="0.48.2 r9819"
   sodipodi:docname="New document 5">
  <defs
     id="defs4307">
    <radialGradient
       id="radialGradient3618"
       spreadMethod="pad"
       gradientTransform="matrix(19.779114,0,0,-19.779114,515.60721,102.30446)"
       gradientUnits="userSpaceOnUse"
       r="1"
       cy="0"
       cx="0"
       fy="0"
       fx="0">
      <stop
         id="stop3620"
         offset="0"
         style="stop-opacity:1;stop-color:#f68b1f" />
      <stop
         id="stop3622"
         offset="1"
         style="stop-opacity:1;stop-color:#ef3829" />
    </radialGradient>
    <clipPath
       id="clipPath3630"
       clipPathUnits="userSpaceOnUse">
      <path
         inkscape:connector-curvature="0"
         id="path3632"
         d="m 467.716,40.52 85.039,0 0,84.724 -85.039,0 0,-84.724 z" />
    </clipPath>
  </defs>
  <sodipodi:namedview
     id="base"
     pagecolor="#ffffff"
     bordercolor="#666666"
     borderopacity="1.0"
     inkscape:pageopacity="0.0"
     inkscape:pageshadow="2"
     inkscape:zoom="1.979899"
     inkscape:cx="108.272"
     inkscape:cy="36.705339"
     inkscape:document-units="px"
     inkscape:current-layer="layer1"
     showgrid="false"
     fit-margin-left="0.5"
     fit-margin-bottom="0.5"
     fit-margin-top="0.5"
     fit-margin-right="0.5"
     inkscape:window-width="1920"
     inkscape:window-height="1028"
     inkscape:window-x="-8"
     inkscape:window-y="-8"
     inkscape:window-maximized="1" />
  <metadata
     id="metadata4310">
    <rdf:RDF>
      <cc:Work
         rdf:about="">
        <dc:format>image/svg+xml</dc:format>
        <dc:type
           rdf:resource="http://purl.org/dc/dcmitype/StillImage" />
        <dc:title></dc:title>
      </cc:Work>
    </rdf:RDF>
  </metadata>
  <g
     inkscape:label="Layer 1"
     inkscape:groupmode="layer"
     id="layer1"
     transform="translate(-282.5785,-255.33969)">
    <g
       transform="matrix(4.8699218,0,0,-4.8699218,-2002.2336,858.22954)"
       id="g4209">
      <g
         id="g3606">
        <g
           id="g3608">
          <g
             id="g3614">
            <g
               id="g3616">
              <path
                 inkscape:connector-curvature="0"
                 d="m 512.058,123.331 c 0.081,-0.278 0.565,-0.555 1.114,-0.657 l 0,0 c 0.541,-0.062 0.897,0.07 0.818,0.37 l 0,0 c -0.094,0.267 -0.567,0.542 -1.106,0.633 l 0,0 c -0.096,0.013 -0.186,0.019 -0.27,0.019 l 0,0 c -0.38,0 -0.615,-0.13 -0.556,-0.365 m -8.085,0.236 c -0.533,-0.116 -0.832,-0.404 -0.625,-0.718 l 0,0 c 0.199,-0.296 0.793,-0.441 1.368,-0.339 l 0,0 c 0.557,0.136 0.813,0.455 0.603,0.735 l 0,0 c -0.172,0.226 -0.546,0.363 -0.958,0.363 l 0,0 c -0.127,0 -0.258,-0.013 -0.388,-0.041 m 8.281,-2.769 c 0.104,-0.499 0.783,-0.99 1.57,-1.096 l 0,0 c 0.787,-0.102 1.29,0.25 1.184,0.734 l 0,0 c -0.124,0.508 -0.778,0.946 -1.545,1.053 l 0,0 c -0.105,0.016 -0.205,0.024 -0.3,0.024 l 0,0 c -0.584,0 -0.981,-0.283 -0.909,-0.715 m -6.737,0.481 c -0.757,-0.172 -1.145,-0.699 -0.848,-1.206 l 0,0 c 0.315,-0.519 1.177,-0.777 1.959,-0.621 l 0,0 c 0.784,0.198 1.124,0.741 0.807,1.237 l 0,0 c -0.259,0.406 -0.84,0.634 -1.453,0.634 l 0,0 c -0.155,0 -0.311,-0.015 -0.465,-0.044 m 14.281,-0.216 c -0.033,-0.243 0.338,-0.62 0.833,-0.864 l 0,0 c 0.499,-0.218 0.905,-0.217 0.905,0.024 l 0,0 c 0.015,0.243 -0.373,0.597 -0.835,0.84 l 0,0 c -0.251,0.114 -0.471,0.173 -0.632,0.173 l 0,0 c -0.155,0 -0.254,-0.056 -0.271,-0.173 m -24.577,-1.502 c -0.463,-0.33 -0.549,-0.817 -0.178,-1.075 l 0,0 c 0.38,-0.248 1.076,-0.196 1.55,0.159 l 0,0 c 0.472,0.358 0.533,0.835 0.147,1.077 l 0,0 c -0.151,0.098 -0.348,0.145 -0.559,0.145 l 0,0 c -0.32,0 -0.674,-0.108 -0.96,-0.306 m 23.899,-0.583 c -0.071,-0.432 0.404,-1.065 1.12,-1.396 l 0,0 c 0.728,-0.326 1.33,-0.204 1.384,0.23 l 0,0 c 0.049,0.461 -0.43,1.029 -1.123,1.352 l 0,0 c -0.285,0.133 -0.558,0.2 -0.786,0.2 l 0,0 c -0.315,0 -0.544,-0.128 -0.595,-0.386 m -6.785,-2.198 c 0.129,-0.854 1.081,-1.648 2.206,-1.789 l 0,0 c 1.122,-0.082 1.848,0.485 1.727,1.356 l 0,0 c -0.156,0.834 -1.084,1.583 -2.163,1.715 l 0,0 c -0.112,0.014 -0.221,0.022 -0.326,0.022 l 0,0 c -0.906,0 -1.511,-0.531 -1.444,-1.304 m -14.253,0.819 c -0.631,-0.488 -0.709,-1.201 -0.146,-1.653 l 0,0 c 0.587,-0.447 1.557,-0.377 2.221,0.12 l 0,0 c 0.637,0.531 0.675,1.223 0.096,1.658 l 0,0 c -0.271,0.176 -0.611,0.267 -0.963,0.267 l 0,0 c -0.416,0 -0.85,-0.128 -1.208,-0.392 m 9.494,0.194 c -1.062,-0.271 -1.577,-1.107 -1.152,-1.992 l 0,0 c 0.466,-0.866 1.703,-1.361 2.794,-1.075 l 0,0 c 1.1,0.295 1.546,1.215 1.078,2.037 l 0,0 c -0.395,0.691 -1.236,1.098 -2.108,1.098 l 0,0 c -0.205,0 -0.41,-0.022 -0.612,-0.068 m 10.27,-2.212 c -0.193,-0.785 0.473,-1.755 1.51,-2.235 l 0,0 c 1.045,-0.445 1.972,-0.155 2.108,0.615 l 0,0 c 0.137,0.781 -0.521,1.712 -1.501,2.155 l 0,0 c -0.347,0.151 -0.686,0.224 -0.986,0.224 l 0,0 c -0.569,0 -1.007,-0.261 -1.131,-0.759 m 9.61,0.416 c -0.144,-0.144 0.037,-0.566 0.421,-0.955 l 0,0 c 0.373,-0.386 0.787,-0.576 0.915,-0.422 l 0,0 c 0.136,0.153 -0.078,0.549 -0.44,0.936 l 0,0 c -0.288,0.301 -0.587,0.481 -0.773,0.481 l 0,0 c -0.049,0 -0.092,-0.013 -0.123,-0.04 m -25.522,-1.306 c -0.865,-0.716 -0.92,-1.777 -0.067,-2.537 l 0,0 c 0.863,-0.689 2.254,-0.685 3.154,0.023 l 0,0 c 0.865,0.744 0.832,1.83 -0.018,2.537 l 0,0 c -0.433,0.327 -0.972,0.492 -1.514,0.492 l 0,0 c -0.551,0 -1.105,-0.171 -1.555,-0.515 m 23.909,0.201 c -0.297,-0.281 -0.082,-0.943 0.469,-1.511 l 0,0 c 0.567,-0.562 1.181,-0.754 1.457,-0.467 l 0,0 c 0.253,0.301 0.02,0.929 -0.496,1.482 l 0,0 c -0.369,0.386 -0.791,0.612 -1.107,0.612 l 0,0 c -0.129,0 -0.24,-0.037 -0.323,-0.116 m -2.731,-1.963 c -0.517,-0.509 -0.313,-1.551 0.468,-2.386 l 0,0 c 0.82,-0.802 1.826,-0.998 2.319,-0.464 l 0,0 c 0.48,0.559 0.235,1.543 -0.512,2.334 l 0,0 c -0.497,0.498 -1.08,0.772 -1.574,0.772 l 0,0 c -0.27,0 -0.513,-0.083 -0.701,-0.256 m -10.935,-2.067 c 0.13,-1.409 1.478,-2.669 3.069,-2.822 l 0,0 c 1.598,-0.092 2.645,0.945 2.504,2.344 l 0,0 c -0.166,1.401 -1.453,2.526 -2.982,2.709 l 0,0 c -0.097,0.008 -0.191,0.013 -0.285,0.013 l 0,0 c -1.383,0 -2.373,-0.903 -2.306,-2.244 m -24.239,0.67 c -0.264,-0.558 -0.081,-1.096 0.453,-1.199 l 0,0 c 0.548,-0.118 1.177,0.247 1.464,0.812 l 0,0 c 0.269,0.562 0.064,1.085 -0.479,1.188 l 0,0 c -0.064,0.012 -0.129,0.018 -0.194,0.018 l 0,0 c -0.493,0 -0.999,-0.323 -1.244,-0.819 m 3.988,-0.844 c -0.351,-0.784 -0.054,-1.519 0.768,-1.747 l 0,0 c 0.809,-0.184 1.739,0.272 2.102,1.064 l 0,0 c 0.354,0.789 -0.009,1.535 -0.811,1.729 l 0,0 c -0.107,0.021 -0.217,0.031 -0.326,0.031 l 0,0 c -0.702,0 -1.412,-0.409 -1.733,-1.077 m 14.886,-0.038 c -1.153,-1.039 -1.152,-2.655 0.081,-3.836 l 0,0 c 1.261,-1.123 3.164,-1.168 4.33,-0.131 l 0,0 c 1.128,1.066 0.998,2.696 -0.202,3.816 l 0,0 c -0.653,0.559 -1.457,0.843 -2.246,0.843 l 0,0 c -0.708,0 -1.403,-0.229 -1.963,-0.692 m -9.576,-1.278 c -0.453,-1.076 0.074,-2.19 1.255,-2.55 l 0,0 c 1.196,-0.309 2.511,0.247 2.96,1.366 l 0,0 c 0.437,1.09 -0.155,2.188 -1.317,2.511 l 0,0 c -0.216,0.057 -0.433,0.084 -0.647,0.084 l 0,0 c -0.96,0 -1.853,-0.545 -2.251,-1.411 m 21.642,0.467 c -0.906,-0.874 -0.739,-2.501 0.399,-3.713 l 0,0 c 1.163,-1.172 2.748,-1.32 3.628,-0.393 l 0,0 c 0.829,0.948 0.594,2.468 -0.473,3.627 l 0,0 c -0.645,0.647 -1.442,0.997 -2.179,0.997 l 0,0 c -0.509,0 -0.991,-0.167 -1.375,-0.518 m 13.987,-1.235 c -0.22,-0.044 -0.204,-0.432 0.009,-0.944 l 0,0 c 0.23,-0.494 0.57,-0.846 0.804,-0.807 l 0,0 c 0.21,0.056 0.216,0.457 -0.032,0.941 l 0,0 c -0.225,0.46 -0.54,0.811 -0.761,0.811 l 0,0 c -0.007,0 -0.013,0 -0.02,-0.001 m -2.212,-0.056 c -0.423,-0.102 -0.495,-0.714 -0.177,-1.441 l 0,0 c 0.337,-0.722 0.919,-1.186 1.321,-1.082 l 0,0 c 0.399,0.123 0.448,0.756 0.139,1.437 l 0,0 c -0.306,0.642 -0.803,1.094 -1.196,1.094 l 0,0 c -0.03,0 -0.059,-0.003 -0.087,-0.008 m -3.623,-0.345 c -0.718,-0.192 -0.976,-1.142 -0.535,-2.193 l 0,0 c 0.48,-1.04 1.418,-1.668 2.15,-1.453 l 0,0 c 0.722,0.258 0.889,1.199 0.461,2.192 l 0,0 c -0.423,0.886 -1.154,1.481 -1.83,1.482 l 0,0 c -0.083,0 -0.165,-0.009 -0.246,-0.028 m -14.346,-2.906 c -1.48,-1.446 -1.416,-3.92 0.232,-5.639 l 0,0 c 1.673,-1.67 4.094,-1.721 5.542,-0.215 l 0,0 c 1.417,1.542 1.215,3.872 -0.335,5.507 l 0,0 c -0.862,0.86 -1.942,1.305 -2.995,1.306 l 0,0 c -0.882,0 -1.745,-0.314 -2.444,-0.959 m -9.455,-2.587 c 0.011,-1.668 1.407,-3.052 3.227,-3.093 l 0,0 c 1.803,-0.003 3.143,1.335 3.127,3.025 l 0,0 c -0.072,1.674 -1.439,2.977 -3.198,3.017 l 0,0 c -1.76,-0.009 -3.117,-1.23 -3.156,-2.949 m -4.935,2.13 c -1.3,-0.039 -2.305,-1.034 -2.383,-2.302 l 0,0 c -0.032,-1.255 0.92,-2.218 2.242,-2.212 l 0,0 c 1.319,0.04 2.359,1.098 2.419,2.35 l 0,0 c 10e-4,1.271 -0.959,2.165 -2.223,2.165 l 0,0 c -0.019,0 -0.037,-10e-4 -0.055,-10e-4 m 22.853,-2.795 c 0.151,-1.6 1.335,-2.957 2.727,-3.068 l 0,0 c 1.387,-0.07 2.27,1.08 2.174,2.623 l 0,0 c -0.155,1.538 -1.25,2.808 -2.613,2.992 l 0,0 c -0.081,0.009 -0.162,0.012 -0.24,0.012 l 0,0 c -1.236,0 -2.127,-1.051 -2.048,-2.559 m -29.477,1.917 c -0.883,-0.071 -1.606,-0.817 -1.684,-1.735 l 0,0 c -0.062,-0.917 0.594,-1.603 1.499,-1.578 l 0,0 c 0.889,0.057 1.648,0.826 1.711,1.763 l 0,0 c 0.033,0.908 -0.586,1.552 -1.452,1.552 l 0,0 c -0.025,0 -0.049,-0.001 -0.074,-0.002 m -5.019,-0.794 c -0.596,-0.073 -1.096,-0.617 -1.16,-1.283 l 0,0 c -0.048,-0.668 0.379,-1.154 0.985,-1.122 l 0,0 c 0.639,0.037 1.134,0.609 1.178,1.297 l 0,0 c 0.04,0.646 -0.354,1.111 -0.93,1.111 l 0,0 c -0.024,0 -0.048,-0.001 -0.073,-0.003 m 41.226,-1.771 c 0.112,-1.129 0.856,-2.089 1.699,-2.186 l 0,0 c 0.799,-0.088 1.331,0.703 1.234,1.796 l 0,0 c -0.153,1.067 -0.818,1.987 -1.626,2.145 l 0,0 c -0.056,0.008 -0.11,0.011 -0.163,0.011 l 0,0 c -0.728,0 -1.226,-0.711 -1.144,-1.766 m -45.338,1.06 c -0.373,-0.058 -0.724,-0.466 -0.786,-0.939 l 0,0 c -0.038,-0.483 0.244,-0.836 0.635,-0.796 l 0,0 c 0.405,0.048 0.749,0.458 0.797,0.947 l 0,0 c 0.053,0.449 -0.2,0.791 -0.586,0.791 l 0,0 c -0.02,0 -0.04,-10e-4 -0.06,-0.003 m 49.824,-1.702 c 0.09,-0.779 0.534,-1.464 1.02,-1.55 l 0,0 c 0.459,-0.072 0.752,0.478 0.655,1.225 l 0,0 c -0.085,0.756 -0.508,1.411 -0.977,1.528 l 0,0 c -0.038,0.007 -0.075,0.011 -0.11,0.011 l 0,0 c -0.418,0 -0.659,-0.491 -0.588,-1.214 m 2.773,-0.579 c 0.065,-0.544 0.335,-1.031 0.595,-1.094 l 0,0 c 0.246,-0.059 0.403,0.312 0.317,0.84 l 0,0 c -0.054,0.517 -0.311,0.99 -0.572,1.085 l 0,0 c -0.02,0.005 -0.039,0.007 -0.058,0.007 l 0,0 c -0.218,0 -0.342,-0.332 -0.282,-0.838 m 1.757,-0.55 c 0.036,-0.375 0.196,-0.723 0.328,-0.775 l 0,0 c 0.128,-0.063 0.157,0.204 0.117,0.575 l 0,0 c -0.078,0.371 -0.191,0.704 -0.313,0.768 l 0,0 c -0.015,0.006 -0.028,0.008 -0.041,0.008 l 0,0 c -0.118,0 -0.134,-0.232 -0.091,-0.576 m -29.879,-1.305 c -1.255,-1.27 -1.247,-3.251 0.035,-4.589 l 0,0 c 1.299,-1.293 3.281,-1.274 4.534,-0.02 l 0,0 c 1.219,1.289 1.183,3.226 -0.063,4.534 l 0,0 c -0.66,0.641 -1.488,0.969 -2.314,0.969 l 0,0 c -0.781,0 -1.56,-0.294 -2.192,-0.894 m 12.789,-0.339 c -1.03,-1.168 -0.971,-3.072 0.097,-4.324 l 0,0 c 1.137,-1.209 2.735,-1.184 3.722,-0.035 l 0,0 c 0.976,1.186 0.907,2.952 -0.106,4.192 l 0,0 c -0.565,0.629 -1.279,0.956 -1.982,0.956 l 0,0 c -0.623,0 -1.238,-0.257 -1.731,-0.789 m -21.038,0.324 c -1.248,-0.491 -1.918,-1.786 -1.502,-3.079 l 0,0 c 0.409,-1.258 1.73,-1.911 3.036,-1.478 l 0,0 c 1.248,0.485 1.94,1.837 1.519,3.126 l 0,0 c -0.359,0.997 -1.234,1.573 -2.209,1.574 l 0,0 c -0.276,0 -0.561,-0.047 -0.844,-0.143 m 28.303,-1.992 c -0.254,-1.131 0.239,-2.331 1.071,-2.745 l 0,0 c 0.858,-0.389 1.654,0.157 1.929,1.24 l 0,0 c 0.221,1.08 -0.193,2.223 -1.018,2.675 l 0,0 c -0.206,0.101 -0.411,0.151 -0.607,0.151 l 0,0 c -0.613,0 -1.141,-0.477 -1.375,-1.321 M 515.82,96.31 c -1.644,0 -2.954,-1.348 -2.965,-3.146 l 0,0 c 0.012,-1.802 1.347,-3.171 3.006,-3.175 l 0,0 c 1.661,0.047 2.894,1.409 2.906,3.153 l 0,0 c -0.011,1.738 -1.262,3.1 -2.926,3.168 l 0,0 c -0.007,0 -0.014,0 -0.021,0 m -23.361,-1.007 c -0.846,-0.354 -1.321,-1.32 -1.028,-2.264 l 0,0 c 0.292,-0.926 1.215,-1.41 2.113,-1.096 l 0,0 c 0.889,0.337 1.331,1.336 1.05,2.291 l 0,0 c -0.237,0.734 -0.862,1.174 -1.551,1.174 l 0,0 c -0.192,0 -0.389,-0.034 -0.584,-0.105 m 39.224,-1.356 c -0.168,-0.801 0.093,-1.641 0.605,-1.914 l 0,0 c 0.502,-0.253 1.006,0.157 1.163,0.908 l 0,0 c 0.164,0.778 -0.104,1.587 -0.577,1.875 l 0,0 c -0.114,0.065 -0.23,0.095 -0.343,0.095 l 0,0 c -0.384,0.001 -0.734,-0.358 -0.848,-0.964 m -44.029,-0.999 c -0.594,-0.241 -0.883,-0.954 -0.687,-1.633 l 0,0 c 0.238,-0.681 0.82,-1.024 1.456,-0.81 l 0,0 c 0.587,0.238 0.912,0.949 0.699,1.649 l 0,0 c -0.181,0.54 -0.617,0.865 -1.09,0.865 l 0,0 c -0.124,0 -0.252,-0.023 -0.378,-0.071 m 46.974,-0.729 c -0.107,-0.565 0.039,-1.151 0.326,-1.331 l 0,0 c 0.28,-0.16 0.568,0.132 0.681,0.665 l 0,0 c 0.074,0.554 -0.011,1.126 -0.306,1.309 l 0,0 c -0.059,0.04 -0.12,0.059 -0.178,0.059 l 0,0 c -0.219,0 -0.424,-0.262 -0.523,-0.702 m -9.553,-0.348 c -0.706,-0.885 -0.719,-2.259 -0.061,-3.105 l 0,0 c 0.681,-0.829 1.748,-0.754 2.436,0.107 l 0,0 c 0.685,0.881 0.703,2.16 0.068,3.019 l 0,0 c -0.333,0.415 -0.763,0.627 -1.2,0.627 l 0,0 c -0.437,0 -0.881,-0.212 -1.243,-0.648 m -23.473,-0.087 c -0.956,-0.989 -0.937,-2.47 0.02,-3.466 l 0,0 c 0.975,-0.969 2.476,-0.972 3.472,-0.012 l 0,0 c 0.966,0.977 0.972,2.473 0.011,3.471 l 0,0 c -0.497,0.486 -1.127,0.727 -1.756,0.727 l 0,0 c -0.626,10e-4 -1.253,-0.24 -1.747,-0.72 m 18.947,-3.237 c -1.092,-0.501 -1.639,-1.807 -1.31,-2.965 l 0,0 c 0.377,-1.152 1.482,-1.629 2.52,-1.135 l 0,0 c 1.04,0.518 1.561,1.752 1.276,2.891 l 0,0 c -0.281,0.863 -0.939,1.377 -1.709,1.377 l 0,0 c -0.25,0 -0.512,-0.054 -0.777,-0.168 m -13.281,-1.668 c -0.478,-1.254 0.125,-2.548 1.357,-3.002 l 0,0 c 1.247,-0.413 2.557,0.194 3.065,1.43 l 0,0 c 0.495,1.227 -0.086,2.547 -1.304,3.017 l 0,0 c -0.265,0.094 -0.536,0.138 -0.801,0.138 l 0,0 c -0.982,0 -1.906,-0.604 -2.317,-1.583 m 21.468,0.281 c -0.469,-0.657 -0.548,-1.601 -0.153,-2.168 l 0,0 c 0.43,-0.534 1.079,-0.452 1.567,0.183 l 0,0 c 0.467,0.644 0.535,1.544 0.16,2.118 l 0,0 c -0.179,0.251 -0.422,0.38 -0.683,0.38 l 0,0 c -0.299,0 -0.621,-0.168 -0.891,-0.513 m -12.931,0.21 c -1.244,-0.055 -2.249,-1.103 -2.323,-2.395 l 0,0 c -0.026,-1.287 0.903,-2.207 2.138,-2.167 l 0,0 c 1.227,0.072 2.175,1.093 2.269,2.353 l 0,0 c 0.038,1.255 -0.834,2.209 -2.053,2.209 l 0,0 c -0.01,0 -0.021,0 -0.031,0 m -18.74,-1.026 c -0.663,-0.691 -0.625,-1.742 0.071,-2.465 l 0,0 c 0.709,-0.695 1.783,-0.725 2.488,-0.067 l 0,0 c 0.69,0.691 0.652,1.735 -0.047,2.479 l 0,0 c -0.385,0.357 -0.855,0.541 -1.317,0.541 l 0,0 c -0.431,0 -0.856,-0.16 -1.195,-0.488 m 34.041,-2.586 c -0.345,-0.477 -0.418,-1.137 -0.187,-1.502 l 0,0 c 0.254,-0.356 0.67,-0.267 1.006,0.204 l 0,0 c 0.338,0.458 0.395,1.108 0.195,1.472 l 0,0 c -0.104,0.16 -0.242,0.239 -0.394,0.239 l 0,0 c -0.202,0 -0.425,-0.14 -0.62,-0.413 m -37.534,-1.557 c -0.476,-0.491 -0.405,-1.207 0.096,-1.736 l 0,0 c 0.518,-0.509 1.276,-0.553 1.761,-0.098 l 0,0 c 0.474,0.474 0.447,1.23 -0.083,1.749 l 0,0 c -0.269,0.275 -0.614,0.411 -0.951,0.411 l 0,0 c -0.3,0 -0.594,-0.109 -0.823,-0.326 m 28.829,-0.119 c -0.784,-0.386 -1.192,-1.328 -1.019,-2.086 l 0,0 c 0.225,-0.778 0.969,-1.056 1.715,-0.675 l 0,0 c 0.743,0.4 1.182,1.261 1.003,2.04 l 0,0 c -0.135,0.547 -0.564,0.882 -1.075,0.882 l 0,0 c -0.2,0 -0.412,-0.051 -0.624,-0.161 m -17.136,-1.795 c -0.344,-0.85 0.1,-1.741 1.009,-2.073 l 0,0 c 0.908,-0.282 1.884,0.129 2.264,0.978 l 0,0 c 0.358,0.856 -0.053,1.749 -0.976,2.091 l 0,0 c -0.191,0.056 -0.386,0.084 -0.579,0.084 l 0,0 c -0.73,0 -1.423,-0.396 -1.718,-1.08 m 10.201,-0.126 c -0.913,-0.062 -1.671,-0.804 -1.739,-1.686 l 0,0 c -0.043,-0.879 0.622,-1.487 1.511,-1.431 l 0,0 c 0.884,0.102 1.633,0.787 1.711,1.657 l 0,0 c 0.078,0.817 -0.531,1.463 -1.391,1.463 l 0,0 c -0.031,0 -0.061,-0.001 -0.092,-0.003 m 8.089,-2.827 c -0.559,-0.296 -0.901,-0.931 -0.783,-1.441 l 0,0 c 0.124,-0.505 0.597,-0.659 1.168,-0.385 l 0,0 c 0.521,0.298 0.862,0.897 0.775,1.413 l 0,0 c -0.077,0.349 -0.333,0.547 -0.661,0.547 l 0,0 c -0.154,0 -0.323,-0.043 -0.499,-0.134 m -19.897,-2.011 c -0.244,-0.562 0.087,-1.184 0.749,-1.415 l 0,0 c 0.667,-0.199 1.369,0.087 1.64,0.646 l 0,0 c 0.252,0.573 -0.055,1.207 -0.732,1.428 l 0,0 c -0.151,0.046 -0.305,0.069 -0.455,0.069 l 0,0 c -0.519,0 -0.997,-0.266 -1.202,-0.728 m 11.386,-0.53 c -0.657,-0.057 -1.209,-0.58 -1.281,-1.158 l 0,0 c -0.026,-0.6 0.422,-0.973 1.072,-0.93 l 0,0 c 0.641,0.088 1.187,0.552 1.265,1.137 l 0,0 c 0.049,0.564 -0.341,0.955 -0.937,0.956 l 0,0 c -0.039,0 -0.079,-0.002 -0.119,-0.005"
                 style="fill:url(#radialGradient3618);stroke:none"
                 id="path3624" />
            </g>
          </g>
        </g>
      </g>
      <g
         id="g3626">
        <g
           id="g3628"
           clip-path="url(#clipPath3630)">
          <g
             id="g3634"
             transform="translate(479.6768,63.378799)">
            <path
               inkscape:connector-curvature="0"
               d="M 0,0 C -1.78,0 -3.822,-0.777 -5.202,-1.362 L -5.364,-1.43 c 0,0 0.185,1.048 0.218,1.231 l -2.991,0 c -0.027,-0.154 -2.231,-12.652 -2.269,-12.869 l 3.339,0 c 0.027,0.154 1.701,9.646 1.701,9.646 l 0.047,0.02 c 0.385,0.168 2.148,0.755 3.428,0.755 0.655,0 1.126,-0.166 1.4,-0.492 0.225,-0.268 0.286,-0.613 0.286,-0.92 0,-0.249 -0.04,-0.474 -0.065,-0.613 0,0 -1.443,-8.179 -1.481,-8.396 l 3.338,0 c 0.027,0.154 1.606,9.099 1.606,9.099 0.058,0.332 0.087,0.646 0.087,0.94 0,0.801 -0.214,1.459 -0.642,1.969 C 1.864,-0.138 0.653,0 0,0"
               style="fill:#838f97;fill-opacity:1;fill-rule:nonzero;stroke:none"
               id="path3636" />
          </g>
          <g
             id="g3638"
             transform="translate(493.9205,57.933304)">
            <path
               inkscape:connector-curvature="0"
               d="m 0,0 -0.014,-0.078 -5.716,0 0.02,0.11 c 0.382,2.17 1.637,3.415 3.443,3.415 0.876,0 1.518,-0.236 1.909,-0.701 C 0.115,2.182 0.229,1.31 0,0 m -1.694,5.518 c -4.247,0 -7.017,-2.436 -7.797,-6.859 -0.36,-2.045 -0.075,-3.639 0.849,-4.74 1.024,-1.221 2.813,-1.84 5.315,-1.84 2.232,0 4.334,0.44 4.637,0.507 0.019,0.111 0.319,1.809 0.359,2.04 -1.103,-0.212 -2.25,-0.423 -3.717,-0.423 -1.64,0 -2.752,0.348 -3.4,1.064 -0.45,0.496 -0.677,1.178 -0.677,2.033 0,0.172 0.009,0.352 0.028,0.538 l 0.008,0.085 9.358,0 c 0.213,1.109 0.324,2.08 0.324,2.915 0,1.406 -0.303,2.445 -0.915,3.189 C 1.851,5.03 0.421,5.518 -1.694,5.518"
               style="fill:#838f97;fill-opacity:1;fill-rule:nonzero;stroke:none"
               id="path3640" />
          </g>
          <g
             id="g3642"
             transform="translate(503.6478,52.985901)">
            <path
               inkscape:connector-curvature="0"
               d="m 0,0 c -0.136,0.163 -0.204,0.38 -0.204,0.651 0,0.108 0.011,0.225 0.033,0.351 l 1.207,6.844 3.979,0 c 0.025,0.141 0.38,2.15 0.415,2.347 l -3.98,0 c 0,0 0.748,4.246 0.799,4.533 -0.271,-0.086 -3.303,-1.047 -3.405,-1.079 -0.019,-0.11 -0.607,-3.454 -0.607,-3.454 l -2.639,0 C -4.427,10.052 -4.781,8.044 -4.816,7.846 l 2.639,0 -1.254,-7.1 c -0.224,-1.269 -0.116,-2.143 0.328,-2.672 0.629,-0.75 1.894,-0.75 3.234,-0.75 l 2.757,0 c 0.024,0.141 0.374,2.126 0.409,2.323 l -2.275,0 C 0.534,-0.353 0.2,-0.237 0,0"
               style="fill:#838f97;fill-opacity:1;fill-rule:nonzero;stroke:none"
               id="path3644" />
          </g>
          <g
             id="g3646"
             transform="translate(518.9565,56.615906)">
            <path
               inkscape:connector-curvature="0"
               d="m 0,0 c -0.17,-0.964 -0.962,-4.116 -4.001,-4.206 -0.809,-0.027 -1.516,0.055 -2.228,0.149 l -0.099,0.013 1.482,8.401 0.071,0.007 c 0.011,0.001 1.028,0.1 1.992,0.1 1.017,0 1.781,-0.296 2.27,-0.879 C 0.115,2.837 0.288,1.631 0,0 m -2.02,6.763 c -0.433,0 -1.237,0 -2.302,-0.15 l -0.13,-0.018 c 0,0 0.944,5.351 0.982,5.565 l -3.34,0 c -0.028,-0.155 -3.185,-18.06 -3.216,-18.239 1.437,-0.327 3.715,-0.475 4.902,-0.475 4.554,0 7.83,2.534 8.548,6.613 C 3.803,2.202 3.498,3.88 2.518,5.047 1.577,6.169 0.008,6.763 -2.02,6.763"
               style="fill:#838f97;fill-opacity:1;fill-rule:nonzero;stroke:none"
               id="path3648" />
          </g>
          <g
             id="g3650"
             transform="translate(531.69611,52.270004)">
            <path
               inkscape:connector-curvature="0"
               d="m 0,0 -0.068,-0.01 c -0.762,-0.106 -1.364,-0.148 -2.079,-0.148 -0.959,0 -1.856,0.043 -2.297,0.568 -0.265,0.316 -0.342,0.768 -0.233,1.383 0.313,1.774 1.626,1.918 3.18,1.918 L 0.651,3.686 0,0 z m -1.142,11.182 c -1.336,0 -3.42,-0.21 -4.603,-0.458 -0.02,-0.117 -0.358,-2.03 -0.399,-2.264 1.04,0.214 2.745,0.45 4.369,0.45 1.504,0 2.311,-0.197 2.7,-0.659 C 1.362,7.729 1.216,6.896 1.03,5.839 l -0.014,-0.078 -0.95,0 c -3.982,0 -7.608,-0.297 -8.239,-3.875 -0.215,-1.219 -0.057,-2.13 0.483,-2.783 0.931,-1.128 2.897,-1.308 4.696,-1.336 l 0.846,0 c 1.627,0 3.267,0.101 5.149,0.316 0.127,0.718 1.562,8.858 1.562,8.858 0.063,0.36 0.095,0.693 0.095,1.003 0,0.787 -0.205,1.416 -0.621,1.907 -1.018,1.203 -3.188,1.347 -5.179,1.331"
               style="fill:#838f97;fill-opacity:1;fill-rule:nonzero;stroke:none"
               id="path3652" />
          </g>
          <g
             id="g3654"
             transform="translate(541.19839,68.775696)">
            <path
               inkscape:connector-curvature="0"
               d="m 0,0 c -0.027,-0.154 -3.218,-18.246 -3.257,-18.465 l 3.34,0 C 0.11,-18.311 3.3,-0.219 3.34,0 L 0,0 z"
               style="fill:#838f97;fill-opacity:1;fill-rule:nonzero;stroke:none"
               id="path3656" />
          </g>
          <g
             id="g3658"
             transform="translate(547.8633,68.775696)">
            <path
               inkscape:connector-curvature="0"
               d="m 0,0 c -0.028,-0.154 -3.219,-18.246 -3.258,-18.465 l 3.341,0 C 0.111,-18.311 3.301,-0.219 3.339,0 L 0,0 z"
               style="fill:#838f97;fill-opacity:1;fill-rule:nonzero;stroke:none"
               id="path3660" />
          </g>
          <g
             id="g3662"
             transform="translate(490.99319,46.294998)">
            <path
               inkscape:connector-curvature="0"
               d="m 0,0 -0.126,0 -1.142,-2.287 1.548,0 L 0,0 z M 0.558,-4.141 0.382,-3 l -2.016,0 -0.589,-1.141 -1.112,0 2.78,4.991 1.377,0 0.862,-4.991 -1.126,0 z"
               style="fill:#828f97;fill-opacity:1;fill-rule:nonzero;stroke:none"
               id="path3664" />
          </g>
          <g
             id="g3666"
             transform="translate(497.6588,43.807907)">
            <path
               inkscape:connector-curvature="0"
               d="m 0,0 c -0.191,-1.043 -0.946,-1.735 -2.345,-1.735 -1.545,0 -1.851,0.826 -1.685,1.735 l 0.613,3.337 1.056,0 -0.574,-3.122 c -0.167,-0.921 0.083,-1.175 0.796,-1.175 0.713,0 1.054,0.254 1.224,1.175 l 0.565,3.122 0.962,0 L 0,0 z"
               style="fill:#828f97;fill-opacity:1;fill-rule:nonzero;stroke:none"
               id="path3668" />
          </g>
          <g
             id="g3670"
             transform="translate(498.46069,42.243896)">
            <path
               inkscape:connector-curvature="0"
               d="m 0,0 0.144,0.801 c 0,0 0.799,-0.207 1.439,-0.207 0.437,0 1.168,0.142 1.271,0.697 0.182,0.994 -2.581,0.4 -2.256,2.163 0.216,1.171 1.265,1.534 2.363,1.534 0.692,0 1.259,-0.145 1.259,-0.145 L 4.077,4.075 c 0,0 -0.546,0.133 -1.157,0.133 C 2.533,4.208 1.794,4.102 1.697,3.574 1.495,2.474 4.317,3.273 3.969,1.386 3.755,0.208 2.504,-0.176 1.534,-0.176 0.643,-0.176 0,0 0,0"
               style="fill:#828f97;fill-opacity:1;fill-rule:nonzero;stroke:none"
               id="path3672" />
          </g>
          <g
             id="g3674"
             transform="translate(507.40669,46.349396)">
            <path
               inkscape:connector-curvature="0"
               d="m 0,0 -1.505,0 -0.772,-4.195 -1.056,0 0.772,4.195 -1.497,0 0.144,0.796 4.059,0 L 0,0 z"
               style="fill:#828f97;fill-opacity:1;fill-rule:nonzero;stroke:none"
               id="path3676" />
          </g>
          <g
             id="g3678"
             transform="translate(509.80569,46.423904)">
            <path
               inkscape:connector-curvature="0"
               d="m 0,0 -0.643,0 -0.307,-1.671 0.642,0 c 0.605,0 0.955,0.193 1.074,0.836 C 0.883,-0.191 0.604,0 0,0 m 0.376,-4.27 -0.856,1.869 -0.605,0 -0.344,-1.869 -1.02,0 0.918,4.991 1.783,0 c 1.134,0 1.791,-0.416 1.584,-1.542 C 1.722,-1.446 1.305,-1.932 0.604,-2.176 l -0.02,-0.041 1.066,-2.053 -1.274,0 z"
               style="fill:#828f97;fill-opacity:1;fill-rule:nonzero;stroke:none"
               id="path3680" />
          </g>
          <g
             id="g3682"
             transform="translate(515.08321,46.294998)">
            <path
               inkscape:connector-curvature="0"
               d="m 0,0 -0.127,0 -1.142,-2.287 1.548,0 L 0,0 z M 0.56,-4.141 0.383,-3 l -2.018,0 -0.591,-1.141 -1.109,0 2.779,4.991 1.376,0 0.867,-4.991 -1.127,0 z"
               style="fill:#828f97;fill-opacity:1;fill-rule:nonzero;stroke:none"
               id="path3684" />
          </g>
          <g
             id="g3686"
             transform="translate(517.44141,42.154007)">
            <path
               inkscape:connector-curvature="0"
               d="m 0,0 0.919,4.991 1.049,0 -0.77,-4.194 2.161,0 L 3.209,0 0,0 z"
               style="fill:#828f97;fill-opacity:1;fill-rule:nonzero;stroke:none"
               id="path3688" />
          </g>
          <g
             id="g3690"
             transform="translate(521.3743,42.154007)">
            <path
               inkscape:connector-curvature="0"
               d="m 0,0 0.918,4.991 1.034,0 L 1.035,0 0,0 z"
               style="fill:#828f97;fill-opacity:1;fill-rule:nonzero;stroke:none"
               id="path3692" />
          </g>
          <g
             id="g3694"
             transform="translate(526.418,46.294998)">
            <path
               inkscape:connector-curvature="0"
               d="m 0,0 -0.127,0 -1.144,-2.287 1.548,0 L 0,0 z M 0.557,-4.141 0.383,-3 l -2.02,0 -0.587,-1.141 -1.114,0 2.781,4.991 1.376,0 0.864,-4.991 -1.126,0 z"
               style="fill:#828f97;fill-opacity:1;fill-rule:nonzero;stroke:none"
               id="path3696" />
          </g>
        </g>
      </g>
    </g>
  </g>
</svg>
