<?xml version="1.0" encoding="utf-8"?>
<!-- Generator: Adobe Illustrator 26.0.2, SVG Export Plug-In . SVG Version: 6.00 Build 0)  -->
<svg version="1.1" id="Layer_1" xmlns="http://www.w3.org/2000/svg" xmlns:xlink="http://www.w3.org/1999/xlink" x="0px" y="0px"
	 width="490px" height="125px" viewBox="0 0 490 125" style="enable-background:new 0 0 490 125;" xml:space="preserve">
<style type="text/css">
	.st0{fill:url(#SVGID_1_);}
	.st1{fill:url(#SVGID_00000058574100539699977850000017088526271834313643_);}
	.st2{fill:url(#SVGID_00000033359965449356043980000003796150659313969547_);}
	.st3{fill:url(#SVGID_00000119107996500373311160000001197981840111026620_);}
	.st4{fill:url(#SVGID_00000142870365573685350310000004108328185785681809_);}
</style>
<g>
	<g>
		<g>
			<g>
				
					<linearGradient id="SVGID_1_" gradientUnits="userSpaceOnUse" x1="159.2399" y1="87.2009" x2="159.2399" y2="193.3072" gradientTransform="matrix(1 0 0 1 -0.1455 -101.833)">
					<stop  offset="0" style="stop-color:#FFF3A6"/>
					<stop  offset="0.3793" style="stop-color:#DEC53E"/>
					<stop  offset="0.4357" style="stop-color:#D8BE3A"/>
					<stop  offset="0.5104" style="stop-color:#C9AD2E"/>
					<stop  offset="0.5951" style="stop-color:#B1911F"/>
					<stop  offset="0.6155" style="stop-color:#AA8A1B"/>
					<stop  offset="0.732" style="stop-color:#997B1C"/>
					<stop  offset="0.9703" style="stop-color:#70581A"/>
					<stop  offset="1" style="stop-color:#6B541A"/>
				</linearGradient>
				<path class="st0" d="M111,8.9h15L139.1,52l14.2-43.2h11.9l14.3,43.1l13.1-43.1h14.6l-21.6,63.9h-12.2L159.1,31l-14.3,41.6h-12.2
					L111,8.9z"/>
				
					<linearGradient id="SVGID_00000170270515411355243400000005764091049198978215_" gradientUnits="userSpaceOnUse" x1="237.9696" y1="87.2009" x2="237.9696" y2="193.3074" gradientTransform="matrix(1 0 0 1 -0.1455 -101.833)">
					<stop  offset="0" style="stop-color:#FFF3A6"/>
					<stop  offset="0.3793" style="stop-color:#DEC53E"/>
					<stop  offset="0.4357" style="stop-color:#D8BE3A"/>
					<stop  offset="0.5104" style="stop-color:#C9AD2E"/>
					<stop  offset="0.5951" style="stop-color:#B1911F"/>
					<stop  offset="0.6155" style="stop-color:#AA8A1B"/>
					<stop  offset="0.732" style="stop-color:#997B1C"/>
					<stop  offset="0.9703" style="stop-color:#70581A"/>
					<stop  offset="1" style="stop-color:#6B541A"/>
				</linearGradient>
				<path style="fill:url(#SVGID_00000170270515411355243400000005764091049198978215_);" d="M210.8,8.9h29.4c7.2,0,13,2,16.7,5.6
					c2.9,2.9,4.4,6.5,4.4,10.9v0.3c0,7.2-3.8,11.1-8.4,13.7c7.3,2.9,11.9,7.2,11.9,15.6v0.3c0,11.7-9.4,17.4-23.7,17.4h-30.2
					L210.8,8.9L210.8,8.9z M237.3,34.6c6.1,0,10.1-2,10.1-6.6v-0.3c0-4.1-3.3-6.6-9.1-6.6h-13.8v13.5H237.3z M241,60.2
					c6.1,0,9.8-2.3,9.8-6.9V53c0-4.2-3.2-6.9-10.3-6.9h-16.2v14C224.3,60.2,241,60.2,241,60.2z"/>
				
					<linearGradient id="SVGID_00000122685357625726743400000004560010417265665462_" gradientUnits="userSpaceOnUse" x1="291.5164" y1="87.2009" x2="291.5164" y2="193.3074" gradientTransform="matrix(1 0 0 1 -0.1455 -101.833)">
					<stop  offset="0" style="stop-color:#FFF3A6"/>
					<stop  offset="0.3793" style="stop-color:#DEC53E"/>
					<stop  offset="0.4357" style="stop-color:#D8BE3A"/>
					<stop  offset="0.5104" style="stop-color:#C9AD2E"/>
					<stop  offset="0.5951" style="stop-color:#B1911F"/>
					<stop  offset="0.6155" style="stop-color:#AA8A1B"/>
					<stop  offset="0.732" style="stop-color:#997B1C"/>
					<stop  offset="0.9703" style="stop-color:#70581A"/>
					<stop  offset="1" style="stop-color:#6B541A"/>
				</linearGradient>
				<path style="fill:url(#SVGID_00000122685357625726743400000004560010417265665462_);" d="M266.3,63.2l8.2-9.8
					c5.7,4.6,11.7,7.7,19,7.7c5.7,0,9.1-2.3,9.1-6v-0.3c0-3.4-2.3-5.4-12.9-8.1c-12.9-3.3-21.1-6.8-21.1-19.4v-0.3
					C268.7,15.7,278,8,291,8c9.3,0,17.2,2.9,23.6,8.1l-7.2,10.5c-5.6-4-11.1-6.2-16.6-6.2c-5.3,0-8.2,2.4-8.2,5.6v0.3
					c0,4.1,2.8,5.6,13.7,8.4c12.9,3.4,20.1,8,20.1,19.1v0.1c0,12.6-9.7,19.7-23.3,19.7C283.7,73.3,273.9,70,266.3,63.2z"/>
				
					<linearGradient id="SVGID_00000136403007646319054280000014943862048642994601_" gradientUnits="userSpaceOnUse" x1="349.3708" y1="87.2011" x2="349.3708" y2="193.3075" gradientTransform="matrix(1 0 0 1 -0.1455 -101.833)">
					<stop  offset="0" style="stop-color:#FFF3A6"/>
					<stop  offset="0.3793" style="stop-color:#DEC53E"/>
					<stop  offset="0.4357" style="stop-color:#D8BE3A"/>
					<stop  offset="0.5104" style="stop-color:#C9AD2E"/>
					<stop  offset="0.5951" style="stop-color:#B1911F"/>
					<stop  offset="0.6155" style="stop-color:#AA8A1B"/>
					<stop  offset="0.732" style="stop-color:#997B1C"/>
					<stop  offset="0.9703" style="stop-color:#70581A"/>
					<stop  offset="1" style="stop-color:#6B541A"/>
				</linearGradient>
				<path style="fill:url(#SVGID_00000136403007646319054280000014943862048642994601_);" d="M319.9,40.8v-0.3
					c0-18,13.5-32.9,33.1-32.9c11.9,0,19.2,4,25.1,9.8l-8.9,10.3c-4.9-4.5-9.8-7.2-16.2-7.2c-10.7,0-18.4,8.9-18.4,19.9l0,0
					c0,10.9,7.6,19.9,18.4,19.9c7.2,0,11.7-2.9,16.7-7.4l8.9,9c-6.6,7-13.8,11.4-26.1,11.4C333.8,73.4,319.9,59,319.9,40.8z"/>
			</g>
			
				<linearGradient id="SVGID_00000155135412997965666460000016547415967989457595_" gradientUnits="userSpaceOnUse" x1="243.3692" y1="201.8824" x2="243.3692" y2="573.3011" gradientTransform="matrix(0.9999 -1.090000e-02 1.090000e-02 0.9999 -1.1073 -99.4797)">
				<stop  offset="1.019160e-02" style="stop-color:#DC0D15"/>
				<stop  offset="1" style="stop-color:#582771"/>
			</linearGradient>
			<path style="fill:url(#SVGID_00000155135412997965666460000016547415967989457595_);" d="M8.1,119.3c0,0,1.9-0.4,5.2-1.3
				c3.4-0.8,8.4-2.3,14.6-3.8c6.4-1.6,14-3,23.1-5c8.9-1.9,19-3.6,30.1-5.6c11-1.6,23.1-3.4,35.8-4.9c6.4-0.8,13-1.5,19.6-2.3
				c6.6-0.8,13.5-1.2,20.5-1.9c14-1.3,28.4-1.9,43.1-2.7c7.3-0.3,14.7-0.4,22.1-0.7c3.7-0.1,7.4-0.3,11.1-0.3h11.3
				c7.4,0,14.8,0.1,22.3,0.1c7.4,0.1,14.8,0.4,22.3,0.7c14.7,0.3,29.2,1.5,43.2,2.4c14,0.9,27.4,2.5,40.2,3.8
				c12.7,1.7,24.8,3,35.8,5c11,1.9,21.2,3.4,30.1,5.6c8.9,2,16.7,3.4,23.1,5.2c6.4,1.6,11.3,3,14.6,4c3.4,0.9,5.2,1.3,5.2,1.3
				s-1.9-0.3-5.3-0.8c-3.4-0.5-8.5-1.3-15-2.5c-6.4-1.3-14.3-2-23.2-3.4c-4.5-0.7-9.3-1.3-14.3-1.7c-5-0.5-10.3-1.2-15.9-1.9
				c-5.6-0.8-11.4-1.1-17.2-1.6c-6-0.5-12.2-1.1-18.6-1.6c-6.4-0.4-13-0.8-19.6-1.2c-6.6-0.3-13.5-0.9-20.4-1.2
				c-13.9-0.7-28.2-1.2-42.8-1.3c-7.3-0.1-14.6-0.4-22-0.4s-14.8,0-22.3,0h-11.1c-3.7,0-7.4,0.1-11.1,0.3c-7.4,0.1-14.7,0.3-22,0.4
				c-14.6,0.7-28.9,0.8-42.8,1.7c-7,0.4-13.8,0.8-20.4,1.2c-6.6,0.4-13.3,0.9-19.6,1.3s-12.5,1.1-18.6,1.6c-6,0.5-11.8,1.1-17.2,1.6
				c-5.6,0.7-10.9,1.2-15.9,1.9c-5,0.5-9.8,0.9-14.3,1.6c-8.9,1.3-16.8,2.1-23.2,3.2s-11.5,1.9-15,2.4C10,119,8.1,119.3,8.1,119.3z"
				/>
		</g>
	</g>
</g>
</svg>
