<svg xmlns="http://www.w3.org/2000/svg" viewBox="0 0 654.32 116.9">
    <g>
      <path d="M11.5,5.41H33.83V25.3h16V41.13h-16V73.74c0,6.9,2.16,8.25,9.6,8.25h6.36v16.1H35.58c-18,0-24.08-3.52-24.08-20.43V41.13H0V25.3H11.5Z"/>
      <path d="M125.29,75.23C118.79,92.41,103.51,99.85,89,99.85c-23.68,0-39.91-14.34-39.91-38.56,0-23.27,17.72-38.15,39-38.15,24.22,0,39,18.26,37.48,44.24h-54c.67,10.42,8.65,15.15,16.77,15.15,8.53,0,13.8-3,16.37-7.3ZM71.85,53.85h31.52c-.41-9.2-6.76-13.67-15.29-13.67C80.1,40.18,73.06,44.24,71.85,53.85Z"/>
      <path d="M202.14,52H181.3c-2-8.53-7.3-11.51-13.93-11.51-8,0-15.83,5.42-15.83,21,0,15.83,7.85,21.1,15.83,21.1,8.25,0,13.26-4.33,14.88-11.23h20.84C198.08,93,180.63,99.85,166,99.85c-24,0-37.21-15.42-37.21-38.56S144,23.14,166,23.14C181.17,23.14,197.81,30,202.14,52Z"/>
      <path d="M228,34.91c3.24-5.41,11.09-11.23,22.59-11.23,18.67,0,24.49,11,24.49,30.71v43.7H252.75V59.94c0-10.42-.28-18.94-11.1-18.94C232,41,228,47.22,228,60.75V98.09H205.66V0H228Z"/>
      <path d="M326.35,46.68c-1.49-5.41-7.17-7-14.21-7-7.71,0-11.63,1.76-11.63,5.41,0,3.39,2.57,5.28,8.93,6.5L323,54c17.45,3.25,25.84,8.39,25.84,21.25,0,16.37-15,24.62-35.18,24.62-19.35,0-33.15-8.25-35.72-25.44h20.7c2,7,7.58,9.2,15.29,9.2,8,0,13.53-2.16,13.53-6.49,0-3.25-2.84-5.28-11.36-6.76l-13-2.17c-14.1-2.32-23.7-9.36-23.7-22.34,0-14.48,15.29-22.46,33.28-22.46,16.65,0,31.66,6.63,34.51,23.27Z"/>
      <path d="M360.44,5.41h22.33V25.3h16V41.13h-16V73.74c0,6.9,2.16,8.25,9.61,8.25h6.35v16.1h-14.2c-18,0-24.09-3.52-24.09-20.43V41.13h-11.5V25.3h11.5Z"/>
      <path d="M449.61,49.79c0-8.66-4.2-11.64-12.31-11.64-7.18,0-12.05,3.66-13,10.69H403.47C404.55,35.18,417.54,23,439.19,23c21,0,32.88,8.52,32.47,30.58l-.27,15.83V77c0,8,.54,16.64,1.63,21.1H451.1l-.27-8.79c-5.42,7.71-14.08,10.55-24.49,10.55-13.8,0-25.17-8.12-25.17-21.38,0-17.86,20.16-23.67,48.44-25.84Zm.54,16c-15.56,1.49-26,3.12-26,11.1,0,4.73,4.47,7.85,10.29,7.85,8.92,0,15.69-3.79,15.69-17.19Z"/>
      <path d="M522.54,46.68a33.53,33.53,0,0,0-6.09-.41c-10.83,0-16.37,3.93-16.37,15.29V98.09H477.75V25.3h21.51V39.1c3.39-8.66,9.48-13.93,19.89-14.34h1.63a7.42,7.42,0,0,1,1.76.13Z"/>
      <path d="M571.92,46.68c-1.49-5.41-7.17-7-14.21-7-7.71,0-11.63,1.76-11.63,5.41,0,3.39,2.57,5.28,8.93,6.5L568.54,54c17.45,3.25,25.84,8.39,25.84,21.25,0,16.37-15,24.62-35.18,24.62-19.34,0-33.15-8.25-35.72-25.44h20.7c2,7,7.58,9.2,15.29,9.2,8,0,13.53-2.16,13.53-6.49,0-3.25-2.84-5.28-11.36-6.76l-13-2.17C534.58,65.89,525,58.85,525,45.87c0-14.48,15.29-22.46,33.29-22.46,16.64,0,31.66,6.63,34.5,23.27Z"/>
      <path style="fill: #39c463" d="M594.11,116.9V98.09h60.21V116.9Z" />
    </g>
</svg>
